/* XPM */
static const char * quadra_xpm[] = {
"48 48 72 1",
" 	c None",
".	c #FFFF00",
"+	c #808000",
"@	c #FF0000",
"#	c #800000",
"$	c #FFFFFF",
"%	c #FCFCFC",
"&	c #F8F8F8",
"*	c #F5F5F5",
"=	c #F0F0F0",
"-	c #EDEDED",
";	c #E9E9E9",
">	c #E6E6E6",
",	c #E5E5E5",
"'	c #E1E1E1",
")	c #DEDEDE",
"!	c #DDDDDD",
"~	c #D9D9D9",
"{	c #D6D6D6",
"]	c #CECECE",
"^	c #CBCBCB",
"/	c #C7C7C7",
"(	c #C3C3C3",
"_	c #C0C0C0",
":	c #BFBFBF",
"<	c #BDBDBD",
"[	c #B5B5B5",
"}	c #B1B1B1",
"|	c #AEAEAE",
"1	c #ADADAD",
"2	c #AAAAAA",
"3	c #A9A9A9",
"4	c #A6A6A6",
"5	c #A2A2A2",
"6	c #9F9F9F",
"7	c #9A9A9A",
"8	c #979797",
"9	c #969696",
"0	c #939393",
"a	c #909090",
"b	c #8F8F8F",
"c	c #8C8C8C",
"d	c #888888",
"e	c #878787",
"f	c #848484",
"g	c #808080",
"h	c #797979",
"i	c #767676",
"j	c #757575",
"k	c #717171",
"l	c #6F6F6F",
"m	c #6E6E6E",
"n	c #676767",
"o	c #626262",
"p	c #5F5F5F",
"q	c #5B5B5B",
"r	c #545454",
"s	c #505050",
"t	c #4D4D4D",
"u	c #414141",
"v	c #404040",
"w	c #3E3E3E",
"x	c #3D3D3D",
"y	c #393939",
"z	c #363636",
"A	c #323232",
"B	c #2F2F2F",
"C	c #2A2A2A",
"D	c #272727",
"E	c #232323",
"F	c #202020",
"G	c #000000",
"   FFFFFFF                                      ",
"  FFErkoAFFFFFFFFFFFFFF   FFFFFFFFFFFFFFFFF     ",
" FFm;$'*%5CFF$kFFk$r8EFF  F$$)6AFF($;bEFgmFF    ",
"FFg$7AFEn;^DF$kFFk$r$_CFF F$6f!;uF(_h-|Fa$0FF   ",
"Fx%cFFFFFu*bF$kFFk$r$;<EF F$kFC^'D(|Fq$ta**eFF  ",
"F9,EF   FF8;F$kFFk$r$p*8FFF$kFFz%i(|FF$ka'k$pFF ",
"F([FF    Fq$z$kFFk$r$wj%sFF$kFFF]4(|Fn$ta'F2>BF ",
"F:[FFFFFFFq$y$kFFk$r$wF//FF$kFFF^4(<8*}Fa'FB=bFF",
"F9,EFDsCFF8;F$kFFk$r$^(!$sF$kFFz&i([;}EFa&((-=DF",
"Fx%cFw$%3r=bF$iFFi$r$6aa)3F$kFE<'D(|d-yFa=aaa&lF",
"FFg$7ADo-$^DF]/CC/]r$wFFd'F$0h~;uF(|E^)ta'FFF_1F",
" FFm;$'*%-:FFu;=*;ur$wFFr$A$$)6AFF(|FC2'a'F Fc{F",
"  FFErkozp$vFFCnnCFFFFGGGGGGFFFFFFFFFFFxFFF FFFF",
"   FFFFFFD$mFFFFFFFGGGG@@@#@G         FFF       ",
"        FFFFF       G$$@@@@#G                   ",
"                    G@$@@@@@#G                  ",
"                     G@@@@#@##G                 ",
"                    GGG@@@@@###G                ",
"                GGGG$@$@@@@#@##G                ",
"              GG$@@$@@@@@@@@@@##G               ",
"              G$@$@@@@#@@#@####GG               ",
"              GG$@@@@@@####GGGGG                ",
"              GG$@@@@@##GGGGGGGG                ",
"               GG$@@@@@#GGGGG                   ",
"               GG@@@@@@##G                      ",
"                GG@@@@#@#G                      ",
"                GG@@#@####G                     ",
"                 GG@#####GG                     ",
"                 GG###GGGG                      ",
"            GGGG  GGGGGGG                       ",
"         GGG$$$G  GGGGGGG                       ",
"        G$$$$$.+G  GGG          GGGG            ",
"        GG$....+G         GGGGGG$.+G            ",
"         G.$....+G  GGGGGG.$.$....++G           ",
"         GG.....+GGG$$.$..........++G           ",
"         GG$.....+................+.+G          ",
"         GG..................+..+..++G          ",
"         GGG$..........+.+...++++++GGGG         ",
"          GG....+..+..+++++++GGGGGGGGGG         ",
"          GG.$.+++++++GGGGGGGGGGGGGGGGG         ",
"          GGG+++GGGGGGGGGGGGGGGGGGG             ",
"           GGGGGGGGGGGGGGGG                     ",
"           GGGGGGGG                             ",
"                                                ",
"                                                ",
"                                                ",
"                                                ",
"                                                "};
