/* XPM */
static char * quadra2_xpm[] = {
"48 48 65 1",
" 	c None",
".	c #020204",
"+	c #828204",
"@	c #840204",
"#	c #484345",
"$	c #4D0204",
"%	c #884544",
"&	c #8B6264",
"*	c #636365",
"=	c #B15554",
"-	c #684446",
";	c #462624",
">	c #282324",
",	c #885554",
"'	c #683234",
")	c #C4C4C5",
"!	c #685655",
"~	c #2B1514",
"{	c #4D3234",
"]	c #9C5554",
"^	c #393739",
"/	c #595454",
"(	c #C15C5C",
"_	c #785655",
":	c #1A1517",
"<	c #9E4D4C",
"[	c #A5A4A5",
"}	c #D70204",
"|	c #FEFE04",
"1	c #552A2B",
"2	c #8C5D5C",
"3	c #653B3C",
"4	c #17090B",
"5	c #827E7C",
"6	c #823E3C",
"7	c #E6E6E4",
"8	c #868687",
"9	c #421E1C",
"0	c #7A7A79",
"a	c #DCDCDA",
"b	c #B9B9B9",
"c	c #A20204",
"d	c #FDFDFB",
"e	c #979799",
"f	c #6C0204",
"g	c #AE6264",
"h	c #FD0204",
"i	c #5A4847",
"j	c #3A2626",
"k	c #3A1E1C",
"l	c #593636",
"m	c #7C6264",
"n	c #784848",
"o	c #7A3E3C",
"p	c #864C4C",
"q	c #B35E5C",
"r	c #A05C5C",
"s	c #BE0204",
"t	c #F0F0F0",
"u	c #0C0B0C",
"v	c #492B2C",
"w	c #2E2E2C",
"x	c #2C1E1C",
"y	c #483B3C",
"z	c #5D5D5C",
"5[5*z////!//!/!!/!!!!!!!!!__!___________,,_nn-lv",
"[db0/#^^//!z!/!/!!!!!!!!!!!!__!__n____,____nn-lv",
"5)0w.^/#u:#/y:>i/>ux^i____y...xi_i4..x-n{ln,-l{j",
"**u/atatteu#.dzy^zt^8.#mmm.dta8:{4bda0.>*/.nnlvj",
"/>*d8:../7)..dzwjzd^dbuim2.de*a7>.bbzt[.5d8.3{;k",
"#:70.w^^uxt5.dz>jzdydab.im.dz..)a.b[.ydw5tt0uvvx",
":0).w^###.87.dz>>zd^d#t84_.dz:x:d*b[..dz5azty:;x",
".ee.y#i/!>#d:dzx>zdyd>*t^{.dzx{.)eb[./d^5a.ebukx",
"u[e.#ii!!^#dxdzxwzd^d>.)b..dzx-.)ebb8t[.5a.:)yuk",
":0).^w^uu.87.dzx>zd^d)bad^.dzx{xt*b[7[..5tbbb5.~",
"y:a0.>dde^t0.d*::*d^de05ae.dz..baub[0t>.5t00*8>4",
"/:*t8:./td)u.)buu))^d>..0a.d5za7>.b[.)aw5a.u.*#.",
"/#u/7datd7b.x>77t7>#d>.$^d:dda8:xub[.ue75a.v:#z.",
"zi^>.^z#:/d>w>u//u>:.#ec$44...4jlv::jju>.4j3;4u4",
"!/iiy>xx:udzjiyj>j^v.cb}}sc@$.jl-nno---ll33nn;k~",
"!/z!/i##y>.:y!!iii--y.}}h}f}$f.3n,,,,,,pnpp]nljx",
"!!!!m!!/!-i-i___n!n!...hhh}hfff.n,]rrrrrrrrrplvk",
"!!!mmmmmmm_!__m2....dhdhhhh@h@@.n,]&grgrrqrgp';k",
"!z!mmmmmmmmmm2..dhhdhhhhhhhhhh@@.n,rggggggrqplv9",
"!!!mmmm2mm22m2.dhdhhhh@hh@h@@@@..np22ggrgggr<';k",
"!!!mm_mm&mm&2_..dhhhhhh@@@@.....voprgrggrggr<l;9",
"!!!mmmm&m&m2m_..dhhhhh@@........{-prrggggggqp'vk",
"!!!mm&mm&&&&2_-..dhhhhh@.....xjv3n,rrggggqgq<'vk",
"!!_mmm&m&m&2&_n..hhhhhh@@.xkjv13-p,rgggqqqqqpl1k",
"!!!m&m&&&&&&&2_3..hhhh@h@.j;{3-op,rrggggqqqq<'1k",
"!!__m&m&&&&222_!..hh@h@@@@.l3np,]rqggqgqqqqqp'vk",
"_!_&m&&&2&&&22,n-..h@@f@f..3o,rrrrgggqqgqq(q<'1k",
"!_!&&m&&&&&&&22_-..@@@....v3p,rgqggqgqqqqqqq<'vk",
"_!m_&m2&2&22....-l.......j{-prrgrggqqg(q(qqq<'19",
"_!_&&&&&&...ddd.-3.......v36,rqggrqqqgqqq(qq<'v9",
"_!_m2&&2.ddddd|+.ll...xj;l-p]rrr....rqg(q((q<'19",
"___2&&22..d||||+.l3lv;vvl3......d|+.<]qqq((q<'19",
"___2&&2,n.|d||||+.l3......|d|d||||++.<](g((q<'19",
"___222&2n..|||||+...dd|d||||||||||++.%<qq(((<'19",
"___&&2&2_..d|||||+||||||||||||||||+|+.%]q(((<'19",
"___&&r22_..||||||||||||||||||+||+||++.6<q(((<'19",
"__,&&&r2,...d||||||||||+|+|||++++++....%=q((]'19",
"__,2r&&&,n..||||+||+||+++++++..........%<q((<'19",
"__,&&rr&2n..|d|+++++++.................o<=((<'19",
"__2r&&&r2n...+++...................9j1'6<(((<'19",
",_,&rg&r2,-................9j9;;;;111'o%<=((='19",
"_p2&&g&r2,n........kj99;;9;11l'''''o6%%<=(((<'19",
"_n,&r&g&rrp-lv;9;;;;1lll'''3o66%%%%<<===((((<'19",
"_n,r&&&rr],no3{l1ll33oo6n6%%%<<<<<=<==(((((=<'19",
"n--nnp,npnp-33333l3-ooo6n%6%%p%<<<<<<<<<<<<<'19~",
"--l3lllllll1l1vv11111lll'l''''''''''''''''''119~",
"ll{v;;v;;;vv;vv;;;;;;1;;11v1111v11111111111199~4",
"vvjxjxxxxkxxkxkkkk9k9k9kkkkkkk99k999999999$9~~4."};
